<?xml version="1.0" standalone="no"?>
<!DOCTYPE svg PUBLIC "-//W3C//DTD SVG 20010904//EN"
 "http://www.w3.org/TR/2001/REC-SVG-20010904/DTD/svg10.dtd">
<svg version="1.0" xmlns="http://www.w3.org/2000/svg"
 width="64.000000pt" height="64.000000pt" viewBox="0 0 64.000000 64.000000"
 preserveAspectRatio="xMidYMid meet">

<g transform="translate(0.000000,64.000000) scale(0.100000,-0.100000)"
fill="#000000" stroke="none">
<path d="M10 390 l0 -220 95 0 c52 0 95 -2 95 -4 0 -24 -26 -66 -43 -69 -12
-2 42 -5 121 -6 130 -1 142 -3 142 -19 0 -10 5 -23 12 -30 16 -16 170 -16 186
0 8 8 12 61 12 174 0 175 0 174 -56 174 -24 0 -24 0 -24 110 l0 110 -270 0
-270 0 0 -220z m530 100 l0 -100 -49 0 c-58 0 -69 -10 -73 -70 l-3 -45 -195 0
-195 0 -3 158 -3 157 261 0 260 0 0 -100z m70 -125 c22 -26 0 -35 -85 -35 -85
0 -107 9 -85 35 9 11 34 15 85 15 51 0 76 -4 85 -15z m10 -145 l0 -100 -95 0
-95 0 0 93 c0 52 3 97 7 100 3 4 46 7 95 7 l88 0 0 -100z m-200 0 l0 -30 -200
0 -200 0 0 30 0 30 200 0 200 0 0 -30z m-70 -62 c0 -7 3 -23 6 -35 6 -22 4
-23 -75 -23 -85 0 -87 1 -75 48 6 20 12 22 75 22 48 0 69 -4 69 -12z m70 -23
c0 -28 -4 -35 -19 -35 -22 0 -26 4 -35 43 -6 25 -4 27 24 27 28 0 30 -3 30
-35z m90 -50 c-6 -8 -9 -19 -5 -25 4 -6 -7 -10 -28 -10 -33 0 -47 13 -47 41 0
5 21 9 46 9 40 0 45 -2 34 -15z m108 -7 c-2 -19 -10 -24 -40 -26 -32 -3 -37
-1 -31 13 3 10 0 21 -8 26 -9 6 2 9 34 9 44 0 48 -2 45 -22z"/>
<path d="M286 499 c-5 -15 -26 -128 -26 -141 0 -4 4 -8 8 -8 9 0 34 151 27
159 -3 2 -7 -2 -9 -10z"/>
<path d="M202 452 l-34 -28 38 -27 c45 -31 62 -25 21 7 l-29 23 26 21 c26 20
33 32 19 32 -5 0 -23 -13 -41 -28z"/>
<path d="M328 454 l33 -26 -33 -29 c-18 -15 -28 -28 -23 -29 6 0 26 13 45 30
l35 29 -30 25 c-16 14 -37 25 -45 26 -9 0 -1 -11 18 -26z"/>
<path d="M495 360 c-4 -6 8 -10 30 -10 22 0 34 4 30 10 -3 6 -17 10 -30 10
-13 0 -27 -4 -30 -10z"/>
<path d="M445 290 c3 -5 10 -10 16 -10 5 0 9 5 9 10 0 6 -7 10 -16 10 -8 0
-12 -4 -9 -10z"/>
<path d="M485 290 c3 -5 33 -10 66 -10 33 0 59 4 59 10 0 6 -29 10 -66 10 -41
0 -63 -4 -59 -10z"/>
<path d="M448 253 c7 -3 16 -2 19 1 4 3 -2 6 -13 5 -11 0 -14 -3 -6 -6z"/>
<path d="M507 253 c18 -2 50 -2 70 0 21 2 7 4 -32 4 -38 0 -55 -2 -38 -4z"/>
<path d="M445 220 c-3 -5 1 -10 9 -10 9 0 16 5 16 10 0 6 -4 10 -9 10 -6 0
-13 -4 -16 -10z"/>
<path d="M485 220 c-4 -6 18 -10 60 -10 42 0 64 4 60 10 -3 6 -30 10 -60 10
-30 0 -57 -4 -60 -10z"/>
<path d="M440 180 c0 -5 7 -10 15 -10 8 0 15 5 15 10 0 6 -7 10 -15 10 -8 0
-15 -4 -15 -10z"/>
<path d="M480 180 c0 -6 28 -10 65 -10 37 0 65 4 65 10 0 6 -28 10 -65 10 -37
0 -65 -4 -65 -10z"/>
<path d="M445 140 c3 -5 10 -10 16 -10 5 0 9 5 9 10 0 6 -7 10 -16 10 -8 0
-12 -4 -9 -10z"/>
<path d="M485 140 c3 -5 30 -10 60 -10 30 0 57 5 60 10 4 6 -18 10 -60 10 -42
0 -64 -4 -60 -10z"/>
</g>
</svg>
